<?xml version="1.0" encoding="UTF-8" standalone="no"?>
<!-- Generator: Adobe Illustrator 15.0.2, SVG Export Plug-In . SVG Version: 6.00 Build 0)  -->

<svg
   xmlns:dc="http://purl.org/dc/elements/1.1/"
   xmlns:cc="http://creativecommons.org/ns#"
   xmlns:rdf="http://www.w3.org/1999/02/22-rdf-syntax-ns#"
   xmlns:svg="http://www.w3.org/2000/svg"
   xmlns="http://www.w3.org/2000/svg"
   xmlns:xlink="http://www.w3.org/1999/xlink"
   xmlns:sodipodi="http://sodipodi.sourceforge.net/DTD/sodipodi-0.dtd"
   xmlns:inkscape="http://www.inkscape.org/namespaces/inkscape"
   version="1.1"
   id="Layer_1"
   x="0px"
   y="0px"
   width="108"
   height="108.0373"
   viewBox="0 0 108 108.03731"
   enable-background="new 0 0 648.371 170.775"
   xml:space="preserve"
   inkscape:version="0.48.4 r9939"
   sodipodi:docname="chrome-logo.svg"><metadata
     id="metadata74"><rdf:RDF><cc:Work
         rdf:about=""><dc:format>image/svg+xml</dc:format><dc:type
           rdf:resource="http://purl.org/dc/dcmitype/StillImage" /></cc:Work></rdf:RDF></metadata><defs
     id="defs72"><linearGradient
       inkscape:collect="always"
       xlink:href="#circle53_2_"
       id="linearGradient3063"
       gradientUnits="userSpaceOnUse"
       gradientTransform="matrix(82,0,0,-82,14489.971,47794.699)"
       x1="-175.6665"
       y1="582.19751"
       x2="-175.6665"
       y2="581.43579" /><linearGradient
       inkscape:collect="always"
       xlink:href="#path55_2_"
       id="linearGradient3065"
       gradientUnits="userSpaceOnUse"
       gradientTransform="matrix(1,0,0,-1,202.50021,188.24916)"
       x1="-114.519"
       y1="250.3918"
       x2="-114.519"
       y2="181.0621" /><linearGradient
       inkscape:collect="always"
       xlink:href="#path57_2_"
       id="linearGradient3067"
       gradientUnits="userSpaceOnUse"
       gradientTransform="matrix(1,0,0,-1,202.50021,188.24916)"
       x1="-181.73779"
       y1="104.4104"
       x2="-146.69279"
       y2="162.3109" /><linearGradient
       inkscape:collect="always"
       xlink:href="#path59_2_"
       id="linearGradient3069"
       gradientUnits="userSpaceOnUse"
       gradientTransform="matrix(1,0,0,-1,202.50021,188.24916)"
       x1="-64.337402"
       y1="98.252197"
       x2="-101.6683"
       y2="188.15109" /><linearGradient
       inkscape:collect="always"
       xlink:href="#path61_2_"
       id="linearGradient3071"
       gradientUnits="userSpaceOnUse"
       gradientTransform="matrix(1,0,0,-1,202.50021,188.24916)"
       x1="-170.1362"
       y1="155.9202"
       x2="-170.1362"
       y2="216.8683" /><linearGradient
       inkscape:collect="always"
       xlink:href="#path63_2_"
       id="linearGradient3073"
       gradientUnits="userSpaceOnUse"
       gradientTransform="matrix(1,0,0,-1,202.50021,188.24916)"
       x1="-86.0093"
       y1="136.23849"
       x2="-127.911"
       y2="93.574898" /><linearGradient
       inkscape:collect="always"
       xlink:href="#path65_2_"
       id="linearGradient3075"
       gradientUnits="userSpaceOnUse"
       gradientTransform="matrix(1,0,0,-1,202.50021,188.24916)"
       x1="-86.6157"
       y1="123.9641"
       x2="-80.521103"
       y2="184.14819" /></defs><sodipodi:namedview
     pagecolor="#ffffff"
     bordercolor="#666666"
     borderopacity="1"
     objecttolerance="10"
     gridtolerance="10"
     guidetolerance="10"
     inkscape:pageopacity="0"
     inkscape:pageshadow="2"
     inkscape:window-width="1280"
     inkscape:window-height="776"
     id="namedview70"
     showgrid="false"
     fit-margin-top="0"
     fit-margin-left="0"
     fit-margin-right="0"
     fit-margin-bottom="0"
     inkscape:zoom="0.45035946"
     inkscape:cx="324.18569"
     inkscape:cy="85.139251"
     inkscape:window-x="0"
     inkscape:window-y="24"
     inkscape:window-maximized="1"
     inkscape:current-layer="Layer_1" /><linearGradient
     id="circle53_2_"
     gradientUnits="userSpaceOnUse"
     x1="-175.6665"
     y1="582.19751"
     x2="-175.6665"
     y2="581.43579"
     gradientTransform="matrix(82,0,0,-82,14489.971,47794.699)"><stop
       offset="0"
       style="stop-color:#81B4E0"
       id="stop23" /><stop
       offset="1"
       style="stop-color:#0C5A94"
       id="stop25" /></linearGradient><linearGradient
     id="path55_2_"
     gradientUnits="userSpaceOnUse"
     x1="-114.519"
     y1="250.3918"
     x2="-114.519"
     y2="181.0621"
     gradientTransform="matrix(1,0,0,-1,202.50021,188.24916)"><stop
       offset="0"
       style="stop-color:#F06B59"
       id="stop29" /><stop
       offset="1"
       style="stop-color:#DF2227"
       id="stop31" /></linearGradient><linearGradient
     id="path57_2_"
     gradientUnits="userSpaceOnUse"
     x1="-181.73779"
     y1="104.4104"
     x2="-146.69279"
     y2="162.3109"
     gradientTransform="matrix(1,0,0,-1,202.50021,188.24916)"><stop
       offset="0"
       style="stop-color:#388B41"
       id="stop35" /><stop
       offset="1"
       style="stop-color:#4CB749"
       id="stop37" /></linearGradient><linearGradient
     id="path59_2_"
     gradientUnits="userSpaceOnUse"
     x1="-64.337402"
     y1="98.252197"
     x2="-101.6683"
     y2="188.15109"
     gradientTransform="matrix(1,0,0,-1,202.50021,188.24916)"><stop
       offset="0"
       style="stop-color:#E4B022"
       id="stop41" /><stop
       offset="0.3"
       style="stop-color:#FCD209"
       id="stop43" /></linearGradient><linearGradient
     id="path61_2_"
     gradientUnits="userSpaceOnUse"
     x1="-170.1362"
     y1="155.9202"
     x2="-170.1362"
     y2="216.8683"
     gradientTransform="matrix(1,0,0,-1,202.50021,188.24916)"><stop
       offset="0"
       style="stop-color:#000000;stop-opacity:0.15"
       id="stop47" /><stop
       offset="0.3"
       style="stop-color:#000000;stop-opacity:0.06"
       id="stop49" /><stop
       offset="1"
       style="stop-color:#000000;stop-opacity:0.03"
       id="stop51" /></linearGradient><linearGradient
     id="path63_2_"
     gradientUnits="userSpaceOnUse"
     x1="-86.0093"
     y1="136.23849"
     x2="-127.911"
     y2="93.574898"
     gradientTransform="matrix(1,0,0,-1,202.50021,188.24916)"><stop
       offset="0"
       style="stop-color:#000000;stop-opacity:0.15"
       id="stop55" /><stop
       offset="0.3"
       style="stop-color:#000000;stop-opacity:0.06"
       id="stop57" /><stop
       offset="1"
       style="stop-color:#000000;stop-opacity:0.03"
       id="stop59" /></linearGradient><linearGradient
     id="path65_2_"
     gradientUnits="userSpaceOnUse"
     x1="-86.6157"
     y1="123.9641"
     x2="-80.521103"
     y2="184.14819"
     gradientTransform="matrix(1,0,0,-1,202.50021,188.24916)"><stop
       offset="0"
       style="stop-color:#000000;stop-opacity:0.15"
       id="stop63" /><stop
       offset="0.3"
       style="stop-color:#000000;stop-opacity:0.06"
       id="stop65" /><stop
       offset="1"
       style="stop-color:#000000;stop-opacity:0.03"
       id="stop67" /></linearGradient><g
     id="g3051"
     transform="matrix(0.63448054,0,0,0.63448054,-4.9203977e-6,39.513407)"><circle
       transform="translate(2.1317774e-4,-62.526744)"
       style="fill:#ffffff"
       sodipodi:ry="83.805"
       sodipodi:rx="83.805"
       sodipodi:cy="85.712997"
       sodipodi:cx="85.314003"
       r="83.805"
       cy="85.712997"
       cx="85.314003"
       id="circle47_1_"
       d="m 169.119,85.712997 c 0,46.284223 -37.52077,83.805003 -83.804997,83.805003 -46.284224,0 -83.8050003,-37.52078 -83.8050003,-83.805003 0,-46.284223 37.5207763,-83.8049999 83.8050003,-83.8049999 46.284227,0 83.804997,37.5207769 83.804997,83.8049999 z" /><path
       style="fill-opacity:0.1"
       inkscape:connector-curvature="0"
       d="m 138.64421,38.423257 c 0,-29.4540008 -23.877,-53.331001 -53.329997,-53.331001 -29.454,0 -53.331,23.8770002 -53.331,53.331001 h 15.237 c 0,-21.039001 17.055,-38.0940008 38.093,-38.0940008 21.037997,0 38.092997,17.0549998 38.092997,38.0940008"
       id="path49_1_" /><circle
       transform="translate(2.1317774e-4,-62.526744)"
       style="fill-opacity:0.1"
       sodipodi:ry="28.951"
       sodipodi:rx="28.951"
       sodipodi:cy="96.378998"
       sodipodi:cx="89.123001"
       r="28.951"
       cy="96.378998"
       cx="89.123001"
       id="circle51_1_"
       d="m 118.074,96.378998 c 0,15.989192 -12.9618,28.951002 -28.950999,28.951002 -15.989196,0 -28.951,-12.96181 -28.951,-28.951002 0,-15.989196 12.961804,-28.951 28.951,-28.951 15.989199,0 28.950999,12.961804 28.950999,28.951 z" /><circle
       transform="translate(2.1317774e-4,-62.526744)"
       style="fill:url(#linearGradient3063)"
       sodipodi:ry="31.236"
       sodipodi:rx="31.236"
       sodipodi:cy="85.711998"
       sodipodi:cx="85.314003"
       r="31.236"
       cy="85.711998"
       cx="85.314003"
       id="circle53_1_"
       d="m 116.55,85.711998 c 0,17.251162 -13.98483,31.236002 -31.235997,31.236002 -17.251166,0 -31.236,-13.98484 -31.236,-31.236002 0,-17.251166 13.984834,-31.236 31.236,-31.236 17.251167,0 31.235997,13.984834 31.235997,31.236 z" /><path
       style="fill:url(#linearGradient3065)"
       inkscape:connector-curvature="0"
       d="m 161.50021,-14.907744 c -20.975,-42.2 -72.187997,-59.407 -114.388997,-38.433 -13.159,6.54 -24.405,16.367 -32.65,28.53 l 34.284,59.425 c -6.314,-20.068 4.837,-41.4560002 24.905,-47.769 3.529,-1.11 7.203,-1.701 10.902,-1.752"
       id="path55_1_" /><path
       style="fill:url(#linearGradient3067)"
       inkscape:connector-curvature="0"
       d="m 14.461213,-24.810744 c -26.241,39.144 -15.7809998,92.148001 23.363,118.389001 12.111,8.119003 26.1,12.999003 40.633,14.175003 L 114.26521,46.805257 c -13.389,16.228 -37.396997,18.529 -53.624997,5.14 -5.512,-4.547 -9.634,-10.552 -11.895,-17.330001"
       id="path57_1_" /><path
       style="fill:url(#linearGradient3069)"
       inkscape:connector-curvature="0"
       d="m 78.457213,107.75326 c 46.990997,3.552 87.964997,-31.662003 91.517997,-78.653004 1.146,-15.162 -1.779,-30.3539998 -8.476,-44.007 H 84.552213 c 21.036997,0.097 38.013997,17.2300002 37.916997,38.268 -0.039,8.511 -2.928,16.766001 -8.205,23.444001"
       id="path59_1_" /><path
       style="fill:url(#linearGradient3071)"
       inkscape:connector-curvature="0"
       d="m 14.461213,-24.810744 34.284,59.425 c -2.54,-8.547 -2,-17.714 1.523,-25.9039998 l -34.284,-35.8070002"
       id="path61_1_" /><path
       style="fill:url(#linearGradient3073)"
       inkscape:connector-curvature="0"
       d="M 78.457213,107.75326 114.26521,46.805257 c -5.65,6.737 -13.456,11.312 -22.093997,12.951 l -15.238,47.997003"
       id="path63_1_" /><path
       style="fill:url(#linearGradient3075)"
       inkscape:connector-curvature="0"
       d="M 161.50021,-14.907744 H 84.552213 c 11.59,0.054 22.525997,5.3809998 29.711997,14.4760002 l 48.759,-12.1900002"
       id="path65_1_" /></g></svg>