<?xml version="1.0" encoding="UTF-8" standalone="no"?>
<!-- Created with Inkscape (http://www.inkscape.org/) -->

<svg
   xmlns:dc="http://purl.org/dc/elements/1.1/"
   xmlns:cc="http://creativecommons.org/ns#"
   xmlns:rdf="http://www.w3.org/1999/02/22-rdf-syntax-ns#"
   xmlns:svg="http://www.w3.org/2000/svg"
   xmlns="http://www.w3.org/2000/svg"
   xmlns:sodipodi="http://sodipodi.sourceforge.net/DTD/sodipodi-0.dtd"
   xmlns:inkscape="http://www.inkscape.org/namespaces/inkscape"
   id="svg2"
   version="1.1"
   inkscape:version="0.48.4 r9939"
   width="383.975"
   height="99.55"
   xml:space="preserve"
   sodipodi:docname="Globalize-Logo.eps"><metadata
     id="metadata8"><rdf:RDF><cc:Work
         rdf:about=""><dc:format>image/svg+xml</dc:format><dc:type
           rdf:resource="http://purl.org/dc/dcmitype/StillImage" /><dc:title></dc:title></cc:Work></rdf:RDF></metadata><defs
     id="defs6" /><sodipodi:namedview
     pagecolor="#ffffff"
     bordercolor="#666666"
     borderopacity="1"
     objecttolerance="10"
     gridtolerance="10"
     guidetolerance="10"
     inkscape:pageopacity="0"
     inkscape:pageshadow="2"
     inkscape:window-width="640"
     inkscape:window-height="480"
     id="namedview4"
     showgrid="false"
     inkscape:zoom="0.94016536"
     inkscape:cx="191.9875"
     inkscape:cy="49.775002"
     inkscape:window-x="468"
     inkscape:window-y="178"
     inkscape:window-maximized="0"
     inkscape:current-layer="g10" /><g
     id="g10"
     inkscape:groupmode="layer"
     inkscape:label="ink_ext_XXXXXX"
     transform="matrix(1.25,0,0,-1.25,0,99.55)"><g
       id="g12"
       transform="scale(0.1,0.1)"><path
         d="m 398.043,146.367 c -138.871,0 -251.852,112.988 -251.852,251.848 0,138.863 112.981,251.844 251.852,251.844 138.855,0 251.836,-112.981 251.836,-251.844 0,-138.86 -112.981,-251.848 -251.836,-251.848 z m 0,544.153 c -161.188,0 -292.313,-131.114 -292.313,-292.305 0,-161.184 131.125,-292.309 292.313,-292.309 161.172,0 292.312,131.125 292.312,292.309 0,161.191 -131.14,292.305 -292.312,292.305"
         style="fill:#369e93;fill-opacity:1;fill-rule:nonzero;stroke:none"
         id="path14" /><path
         d="m 398.047,654.406 c -75.109,0 -138.574,-117.316 -138.574,-256.191 0,-138.891 63.465,-256.184 138.574,-256.184 75.101,0 138.558,117.293 138.558,256.184 0,138.875 -63.457,256.191 -138.558,256.191 z m 0,-544.14 c -95.508,0 -170.328,126.464 -170.328,287.949 0,161.48 74.82,287.957 170.328,287.957 95.508,0 170.316,-126.477 170.316,-287.957 0,-161.485 -74.808,-287.949 -170.316,-287.949"
         style="fill:#369e93;fill-opacity:1;fill-rule:nonzero;stroke:none"
         id="path16" /><path
         d="m 382.164,126.125 31.7461,0 0,544.168 -31.7461,0 0,-544.168 z"
         style="fill:#369e93;fill-opacity:1;fill-rule:nonzero;stroke:none"
         id="path18" /><path
         d="m 398.047,536.785 c -138.875,0 -256.192,-63.457 -256.192,-138.551 0,-75.121 117.317,-138.578 256.192,-138.578 138.883,0 256.183,63.457 256.183,138.578 0,75.094 -117.3,138.551 -256.183,138.551 z m 0,-308.875 c -161.469,0 -287.969,74.817 -287.969,170.324 0,95.489 126.5,170.293 287.969,170.293 161.496,0 287.945,-74.804 287.945,-170.293 0,-95.507 -126.449,-170.324 -287.945,-170.324"
         style="fill:#369e93;fill-opacity:1;fill-rule:nonzero;stroke:none"
         id="path20" /><path
         d="m 125.945,382.344 544.184,0 0,31.75 -544.184,0 0,-31.75 z"
         style="fill:#369e93;fill-opacity:1;fill-rule:nonzero;stroke:none"
         id="path22" /><path
         d="m 626.305,71.7695 3.086,-1.5742 c 15.625,-7.8594 34.281,-8 49.828,-0.2851 13.301,6.6445 23.242,18.0586 27.945,32.1678 4.707,14.113 3.652,29.211 -2.988,42.524 -9.488,19.031 -28.594,30.859 -49.863,30.859 -8.653,0 -17.004,-2.004 -24.833,-5.883 -23.011,-11.512 -35.062,-37.117 -29.226,-62.312 l 0.898,-3.914 -3.347,-2.266 C 584.59,92.1875 571.227,84.3633 558.098,77.8203 508.059,52.8633 454.469,40.1875 398.785,40.1875 261.809,40.1875 138.816,116.125 77.8438,238.313 26.918,340.363 27.8125,460.93 79.9297,562.023 67.9063,568.566 57.1094,576.824 47.7344,586.777 -13.6953,472.813 -16.0352,336.465 41.8906,220.402 109.711,84.4648 246.484,0 398.848,0 l 0.031,0 c 61.887,0 121.496,14.1133 177.172,41.8633 16.207,8.0859 32.164,17.4922 47.363,27.9531 l 2.891,1.9531"
         style="fill:#97a8b3;fill-opacity:1;fill-rule:nonzero;stroke:none"
         id="path24" /><path
         d="m 754.141,575.793 c -47.493,95.164 -129.219,166.172 -230.094,199.883 -41.192,13.769 -83.789,20.75 -126.641,20.75 -61.73,0 -121.426,-14.168 -177.426,-42.11 -16.386,-8.183 -32.453,-17.664 -47.757,-28.164 l -2.813,-1.922 -3.105,1.493 c -15.524,7.597 -33.918,7.675 -49.242,0.011 -27.4692,-13.711 -38.6724,-47.199 -24.9575,-74.679 9.4925,-19.024 28.6095,-30.84 49.8635,-30.84 8.66,0 17.008,1.973 24.816,5.89 23.309,11.637 35.305,37.45 29.168,62.833 l -0.941,3.992 3.371,2.265 c 13.176,8.868 26.488,16.66 39.555,23.164 50.3,25.129 103.976,37.864 159.503,37.864 38.52,0 76.829,-6.301 113.868,-18.633 90.711,-30.332 164.171,-94.184 206.875,-179.746 50.992,-102.219 50.097,-222.813 -2.164,-323.867 12.011,-6.457 22.812,-14.739 32.238,-24.68 61.539,113.867 63.883,250.273 5.883,366.496"
         style="fill:#97a8b3;fill-opacity:1;fill-rule:nonzero;stroke:none"
         id="path26" /><path
         d="m 898.445,317.488 c 0,7.375 1.141,16.457 2.274,23.84 l 28.383,163.477 c 11.918,69.25 52.222,110.683 153.258,110.683 38.6,0 89.12,-9.082 118.63,-18.164 l -18.73,-71.511 c -30.65,8.503 -78.33,14.187 -108.42,14.187 -43.7,0 -58.46,-19.305 -64.14,-52.793 L 986.43,356.086 c -1.133,-6.242 -1.703,-13.059 -1.703,-18.731 0,-23.273 11.351,-36.894 47.113,-36.894 17.03,0 39.74,2.84 55.63,6.238 l 18.73,103.313 78.33,0 -28.38,-159.504 c -34.62,-14.754 -80.03,-24.403 -131.69,-24.403 -87.413,0 -126.015,36.329 -126.015,91.383"
         style="fill:#3d5269;fill-opacity:1;fill-rule:nonzero;stroke:none"
         id="path28" /><path
         d="m 1292.36,621.172 82.31,11.348 -70.39,-400.743 -80.03,0 68.11,389.395"
         style="fill:#3d5269;fill-opacity:1;fill-rule:nonzero;stroke:none"
         id="path30" /><path
         d="m 1565.39,415.684 c 0,20.437 -12.49,31.222 -38.61,31.222 -30.08,0 -47.67,-15.324 -52.21,-42.57 l -11.93,-68.68 c -0.56,-3.976 -1.13,-7.953 -1.13,-11.359 0,-19.863 12.49,-31.223 38.59,-31.223 30.66,0 47.69,15.332 52.23,42.582 l 11.92,68.68 c 0.57,3.977 1.14,7.949 1.14,11.348 z M 1380.9,318.621 c 0,6.242 0.57,13.059 1.71,19.301 l 11.35,64.141 c 12.49,70.957 47.11,111.824 143.62,111.824 74.35,0 107.84,-42.567 107.84,-91.953 0,-6.25 -0.57,-13.055 -1.7,-19.871 l -11.35,-64.141 c -11.92,-66.406 -43.71,-111.817 -144.18,-111.817 -70.39,0 -107.29,42 -107.29,92.516"
         style="fill:#3d5269;fill-opacity:1;fill-rule:nonzero;stroke:none"
         id="path32" /><path
         d="m 1865.08,425.332 c 2.83,14.766 -1.14,21.574 -15.33,21.574 -17.59,0 -45.98,-11.347 -62.44,-21.574 l -22.7,-130.547 c 9.65,-1.14 19.86,-1.711 31.22,-1.711 41.44,0 49.38,20.442 54.49,47.121 l 14.76,85.137 z m -190.72,-186.18 67.54,382.02 81.74,11.348 -24.98,-142.469 c 23.27,13.621 50.52,23.836 80.61,23.836 60.16,0 74.92,-36.895 64.14,-98.77 l -13.06,-74.355 C 1919,274.91 1899.13,226.105 1781.06,226.105 c -28.94,0 -68.68,3.965 -106.7,13.047"
         style="fill:#3d5269;fill-opacity:1;fill-rule:nonzero;stroke:none"
         id="path34" /><path
         d="m 2056.36,315.781 c -2.28,-14.754 1.13,-20.429 15.32,-20.429 20.44,0 42.57,11.914 60.73,27.246 l 21.01,119.765 c -10.78,2.278 -22.71,2.84 -31.22,2.84 -41.44,0 -46.55,-20.437 -51.65,-47.117 l -14.19,-82.305 z m 72.65,-84.004 -2.27,23.836 c -19.3,-14.754 -48.25,-29.508 -87.98,-29.508 -60.18,0 -72.09,36.329 -61.31,98.192 l 13.06,74.363 c 11.36,65.844 37.46,114.66 146.44,114.66 28.96,0 66.99,-5.105 105.59,-17.031 l -45.99,-264.512 -67.54,0"
         style="fill:#3d5269;fill-opacity:1;fill-rule:nonzero;stroke:none"
         id="path36" /><path
         d="m 2336.75,621.172 82.3,11.348 -70.39,-400.743 -80.04,0 68.13,389.395"
         style="fill:#3d5269;fill-opacity:1;fill-rule:nonzero;stroke:none"
         id="path38" /><path
         d="m 2491.7,624.004 82.3,11.359 -15.32,-85.148 -81.74,-11.356 14.76,85.145 z m -21.57,-122.039 82.3,11.355 -49.95,-281.543 -80.03,0 47.68,270.188"
         style="fill:#3d5269;fill-opacity:1;fill-rule:nonzero;stroke:none"
         id="path40" /><path
         d="m 2579.67,293.074 131.69,151.567 -104.45,0 10.8,63.574 187.31,0 -0.57,-61.309 -132.25,-150.988 108.98,0 -10.79,-64.141 -187.88,0 -2.84,61.297"
         style="fill:#3d5269;fill-opacity:1;fill-rule:nonzero;stroke:none"
         id="path42" /><path
         d="m 2997.43,436.121 c 0,9.652 -8.51,15.891 -23.27,15.891 -28.95,0 -37.47,-16.453 -41.44,-39.16 l -3.4,-19.305 c 13.62,3.406 19.86,4.539 36.32,9.656 21.58,6.242 31.79,16.453 31.79,32.918 z m -144.74,-26.676 c 11.34,63.575 39.73,104.442 127.14,104.442 52.22,0 91.96,-22.703 91.96,-69.246 0,-53.926 -27.82,-78.907 -95.93,-99.336 -33.49,-10.215 -34.05,-10.215 -57.9,-16.465 l -3.4,-19.297 c -1.71,-10.219 -0.58,-19.301 14.19,-19.301 28.95,0 70.95,14.192 108.41,30.649 l 15.33,-56.758 c -33.5,-21.008 -86.28,-38.028 -135.1,-38.028 -57.32,0 -81.74,24.969 -81.74,72.079 0,10.222 1.14,21.574 3.41,33.496 l 13.63,77.765"
         style="fill:#3d5269;fill-opacity:1;fill-rule:nonzero;stroke:none"
         id="path44" /></g></g></svg>