<?xml version="1.0" encoding="UTF-8" standalone="no"?>
<!-- Created with Inkscape (http://www.inkscape.org/) -->

<svg
   xmlns:dc="http://purl.org/dc/elements/1.1/"
   xmlns:cc="http://creativecommons.org/ns#"
   xmlns:rdf="http://www.w3.org/1999/02/22-rdf-syntax-ns#"
   xmlns:svg="http://www.w3.org/2000/svg"
   xmlns="http://www.w3.org/2000/svg"
   xmlns:sodipodi="http://sodipodi.sourceforge.net/DTD/sodipodi-0.dtd"
   xmlns:inkscape="http://www.inkscape.org/namespaces/inkscape"
   width="111.99998"
   height="110.1335"
   id="svg3769"
   version="1.1"
   inkscape:version="0.48.4 r9939"
   sodipodi:docname="Internet-Explorer-logo.svg">
  <defs
     id="defs3771" />
  <sodipodi:namedview
     id="base"
     pagecolor="#ffffff"
     bordercolor="#666666"
     borderopacity="1.0"
     inkscape:pageopacity="0.0"
     inkscape:pageshadow="2"
     inkscape:zoom="0.98994949"
     inkscape:cx="54.938704"
     inkscape:cy="-50.96784"
     inkscape:document-units="px"
     inkscape:current-layer="layer1"
     showgrid="false"
     fit-margin-top="4"
     fit-margin-left="4"
     fit-margin-right="4"
     fit-margin-bottom="4"
     inkscape:window-width="1280"
     inkscape:window-height="776"
     inkscape:window-x="0"
     inkscape:window-y="24"
     inkscape:window-maximized="1" />
  <metadata
     id="metadata3774">
    <rdf:RDF>
      <cc:Work
         rdf:about="">
        <dc:format>image/svg+xml</dc:format>
        <dc:type
           rdf:resource="http://purl.org/dc/dcmitype/StillImage" />
        <dc:title />
      </cc:Work>
    </rdf:RDF>
  </metadata>
  <g
     inkscape:label="Layer 1"
     inkscape:groupmode="layer"
     id="layer1"
     transform="translate(-314.39469,-383.05082)">
    <path
       id="svg"
       d="m 422.39465,440.51034 c 0,-8.22157 -2.12565,-15.94553 -5.85317,-22.65729 15.88835,-35.95871 -17.02458,-30.69183 -18.85709,-30.33328 -6.97292,1.36445 -13.42401,3.55503 -19.37457,6.33189 -0.8775,-0.0494 -1.76031,-0.0766 -2.64992,-0.0766 -22.20764,0 -40.79678,15.48958 -45.55442,36.25428 11.70489,-13.13135 19.89642,-18.42973 24.80184,-20.55005 -0.78301,0.69967 -1.54954,1.40709 -2.30348,2.11984 -0.25098,0.23694 -0.49276,0.47727 -0.74036,0.71566 -0.49714,0.47823 -0.9933,0.95695 -1.47783,1.44003 -0.2883,0.28733 -0.56884,0.57708 -0.85278,0.86635 -0.42978,0.43753 -0.8586,0.87458 -1.2782,1.31454 -0.29799,0.31252 -0.58871,0.62601 -0.88137,0.93903 -0.39198,0.4196 -0.78155,0.83969 -1.16385,1.26124 -0.29701,0.32754 -0.5892,0.65508 -0.88088,0.9836 -0.36244,0.40797 -0.72147,0.81595 -1.07567,1.2249 -0.29362,0.33918 -0.58483,0.67834 -0.87264,1.01801 -0.33579,0.39635 -0.6672,0.79269 -0.99523,1.18905 -0.29024,0.35079 -0.57951,0.70111 -0.86345,1.05143 -0.30719,0.3789 -0.6076,0.75733 -0.90753,1.13526 -0.29072,0.36631 -0.58144,0.73213 -0.86538,1.09795 -0.27037,0.34839 -0.53298,0.69531 -0.79753,1.04272 -0.29848,0.39247 -0.59938,0.78495 -0.8901,1.17548 -0.20786,0.27958 -0.40749,0.55625 -0.61148,0.83486 -1.84656,2.51957 -3.53371,4.99069 -5.05756,7.36442 -0.004,0.006 -0.008,0.0117 -0.0112,0.0174 -0.40119,0.62505 -0.78833,1.2409 -1.16773,1.8514 -0.0203,0.0329 -0.0417,0.0663 -0.062,0.0998 -0.37988,0.61293 -0.74667,1.21521 -1.10426,1.81118 -0.0126,0.0208 -0.0257,0.0422 -0.0382,0.063 -0.96131,1.6043 -1.85286,3.15093 -2.65573,4.60598 -4.20915,7.62802 -6.25823,12.95741 -6.3469,13.27381 -13.29173,47.51921 28.19211,27.45224 33.98084,24.45684 6.23304,3.07922 13.25006,4.8124 20.67312,4.8124 20.32135,0 37.61098,-12.97146 44.04656,-31.08575 h -24.5562 c -3.63352,6.13855 -10.62873,10.29633 -18.6652,10.29633 -11.77466,0 -21.31949,-8.92123 -21.31949,-19.92645 h 66.84435 c 0.25341,-1.97109 0.38471,-3.97996 0.38471,-6.01936 z m -8.73033,-45.99002 c 4.02454,2.7163 7.25251,6.98213 1.70895,21.34807 -5.31679,-8.55056 -13.31596,-15.25796 -22.82349,-18.94478 4.32496,-2.08882 15.03557,-6.50681 21.11454,-2.40329 z m -85.52798,87.8174 c -3.27788,-3.36169 -3.85738,-11.54934 3.37574,-26.46912 3.65048,10.49549 10.93497,19.28978 20.35043,24.87113 -4.68254,2.57724 -17.11374,8.38002 -23.72617,1.59799 z m 26.92603,-48.58809 c 0.37358,-10.69608 9.68243,-19.26022 21.11986,-19.26022 11.43694,0 20.74629,8.56414 21.11986,19.26022 h -42.23972 z"
       style="fill:#1ebbee;fill-opacity:1"
       inkscape:connector-curvature="0" />
  </g>
</svg>
