<?xml version="1.0" encoding="UTF-8" standalone="no"?>
<!-- Created with Inkscape (http://www.inkscape.org/) -->

<svg
   xmlns:dc="http://purl.org/dc/elements/1.1/"
   xmlns:cc="http://creativecommons.org/ns#"
   xmlns:rdf="http://www.w3.org/1999/02/22-rdf-syntax-ns#"
   xmlns:svg="http://www.w3.org/2000/svg"
   xmlns="http://www.w3.org/2000/svg"
   xmlns:sodipodi="http://sodipodi.sourceforge.net/DTD/sodipodi-0.dtd"
   xmlns:inkscape="http://www.inkscape.org/namespaces/inkscape"
   id="svg2"
   version="1.1"
   inkscape:version="0.48.4 r9939"
   width="297.20816"
   height="79.760002"
   xml:space="preserve"
   sodipodi:docname="QUnit-Logo.eps"><metadata
     id="metadata8"><rdf:RDF><cc:Work
         rdf:about=""><dc:format>image/svg+xml</dc:format><dc:type
           rdf:resource="http://purl.org/dc/dcmitype/StillImage" /><dc:title></dc:title></cc:Work></rdf:RDF></metadata><defs
     id="defs6" /><sodipodi:namedview
     pagecolor="#ffffff"
     bordercolor="#666666"
     borderopacity="1"
     objecttolerance="10"
     gridtolerance="10"
     guidetolerance="10"
     inkscape:pageopacity="0"
     inkscape:pageshadow="2"
     inkscape:window-width="640"
     inkscape:window-height="480"
     id="namedview4"
     showgrid="false"
     fit-margin-top="0"
     fit-margin-left="0"
     fit-margin-right="0"
     fit-margin-bottom="0"
     inkscape:zoom="0.49673752"
     inkscape:cx="218.9875"
     inkscape:cy="-157.7875"
     inkscape:window-x="563"
     inkscape:window-y="175"
     inkscape:window-maximized="0"
     inkscape:current-layer="g10" /><g
     id="g10"
     inkscape:groupmode="layer"
     inkscape:label="ink_ext_XXXXXX"
     transform="matrix(1.25,0,0,-1.25,0,475.0975)"><path
       inkscape:connector-curvature="0"
       id="path14"
       style="fill:#2f2d2e;fill-opacity:1;fill-rule:nonzero;stroke:none"
       d="m 159.14,377.728 -8.926,0 c -0.494,0 -0.985,-0.518 -1.098,-1.001 l -3.169,-14.717 -3.165,-14.981 c -0.109,-0.485 -0.599,-1.2 -1.096,-1.2 l -6.319,0 c -6.244,0 -5.521,4.614 -4.242,10.539 l 2.559,13.203 1.438,7.156 c 0.103,0.483 -0.219,1.001 -0.716,1.001 l -9.168,0 c -0.494,0 -0.98,-0.518 -1.084,-1.001 l -4.126,-19.686 c -2.267,-10.364 -1.664,-19.973 10.673,-20.278 0.195,-0.003 19.741,0 19.741,0 0.494,0 0.988,0.127 1.087,0.608 l 4.147,19.754 4.179,19.674 c 0.107,0.485 -0.218,0.929 -0.715,0.929" /><path
       inkscape:connector-curvature="0"
       id="path16"
       style="fill:#2f2d2e;fill-opacity:1;fill-rule:nonzero;stroke:none"
       d="m 105.401,358.467 -1.813,-6.41 -1.75,-5.648 c -0.112,-0.391 -0.683,-0.653 -1.087,-0.653 l -8.5084,0 c -6.4567,0 -8.0242,4.988 -6.4567,12.432 1.5696,7.617 4.7961,12.318 11.1465,12.801 8.6806,0.656 10.5676,-5.478 8.4686,-12.522 m 5.545,-12.39 c 0,0 4.008,9.748 4.926,15.366 1.232,7.537 -2.532,18.455 -17.0962,18.455 -14.4813,0 -20.7703,-10.427 -23.1684,-21.762 -2.3965,-11.419 0.7473,-21.432 15.1406,-21.346 l 21.981,0.076 c 0.405,0.004 0.823,0.328 0.928,0.719 l 1.85,7.056 c 0.103,0.395 -0.149,0.723 -0.56,0.727 l -1.763,0.006 -1.781,0.014 c -0.343,0.007 -0.543,0.225 -0.5,0.523 l 0.043,0.166" /><path
       inkscape:connector-curvature="0"
       id="path18"
       style="fill:#2f2d2e;fill-opacity:1;fill-rule:nonzero;stroke:none"
       d="m 187.645,338.182 c -0.13,-0.653 -0.78,-1.393 -1.443,-1.393 l -7.865,0 c -0.663,0 -1.09,0.74 -0.961,1.389 0,0 3.169,15.304 3.321,15.947 0,0 1.356,5.76 -2.91,5.76 l -3.606,0 c -0.67,0 -1.32,-0.54 -1.458,-1.187 l -4.386,-20.516 c -0.136,-0.65 -0.789,-1.393 -1.451,-1.393 l -7.604,0 c -0.656,0 -1.091,0.74 -0.951,1.389 l 6.251,29.626 c 0.139,0.65 0.789,1.435 1.451,1.435 0,0 13.073,0 16.02,0 12.91,0 9.005,-14.431 9.005,-14.431 -0.175,-0.63 -3.413,-16.626 -3.413,-16.626" /><path
       inkscape:connector-curvature="0"
       id="path20"
       style="fill:#2f2d2e;fill-opacity:1;fill-rule:nonzero;stroke:none"
       d="m 206.265,370.89 c -2.844,0 -4.925,0.888 -4.169,4.418 0.761,3.536 3.221,4.418 6.058,4.418 2.715,0 4.863,-0.882 4.1,-4.418 -0.752,-3.464 -3.215,-4.418 -5.989,-4.418 m -2.519,-32.712 c -0.136,-0.649 -0.796,-1.389 -1.458,-1.389 l -7.929,0 c -0.663,0 -1.081,0.74 -0.941,1.383 l 6.393,29.369 c 0.145,0.643 0.794,1.292 1.451,1.292 l 7.706,0 c 0.666,0 1.091,-0.745 0.958,-1.395 l -6.18,-29.26" /><path
       inkscape:connector-curvature="0"
       id="path22"
       style="fill:#2f2d2e;fill-opacity:1;fill-rule:nonzero;stroke:none"
       d="m 215.425,336.763 c -0.654,0.026 -1.066,0.786 -0.923,1.435 l 4.918,22.384 c 0.14,0.639 -0.281,1.173 -0.944,1.173 l -3.786,0 c -0.659,0 -1.077,0.524 -0.92,1.17 l 1.066,4.61 c 0.156,0.644 0.826,1.319 1.485,1.319 l 4.147,0 c 0.653,0 1.312,0.371 1.455,1.028 l 1.243,5.33 c 0.136,0.646 0.792,0.789 1.458,0.789 l 6.208,0 c 0.66,0 1.087,-0.219 0.948,-0.865 l -1.207,-5.413 c -0.135,-0.65 0.292,-0.869 0.948,-0.869 l 5.291,0 c 0.656,0 1.074,-0.675 0.924,-1.319 l -1.084,-4.64 c -0.145,-0.646 -0.815,-1.196 -1.474,-1.196 l -4.89,0 c -0.659,0 -1.315,-0.577 -1.465,-1.224 l -4.918,-22.558 c -0.133,-0.647 -0.789,-1.174 -1.445,-1.153 l -7.035,-0.001" /><path
       inkscape:connector-curvature="0"
       id="path24"
       style="fill:#992094;fill-opacity:1;fill-rule:nonzero;stroke:none"
       d="m 60.3008,326.495 c 0,-3.262 -3.2895,-6.715 -6.5625,-6.715 l -47.51369,0 C 2.95977,319.78 0,323.233 0,326.495 l 0,47.523 c 0,3.262 2.95977,6.06 6.22461,6.06 l 47.51369,0 c 3.273,0 6.5625,-2.798 6.5625,-6.06 l 0,-47.523" /><path
       inkscape:connector-curvature="0"
       id="path26"
       style="fill:#ffffff;fill-opacity:1;fill-rule:nonzero;stroke:none"
       d="m 53.1168,347.662 -1.5445,-7.259 1.5445,7.259" /><path
       inkscape:connector-curvature="0"
       id="path28"
       style="fill:#ffffff;fill-opacity:1;fill-rule:nonzero;stroke:none"
       d="m 49.1508,347.662 -1.1711,-5.423 1.1711,5.423" /><path
       inkscape:connector-curvature="0"
       id="path30"
       style="fill:#ffffff;fill-opacity:1;fill-rule:nonzero;stroke:none"
       d="m 52.85,348.188 -3.2949,0 c -0.1856,0 -0.3711,-0.248 -0.4043,-0.426 l -1.1711,-5.47 -1.1672,-5.681 c -0.0414,-0.186 -0.227,-0.597 -0.4094,-0.597 l -2.3332,0 c -2.3101,0 -2.0449,1.836 -1.5761,4.024 l 0.0214,0.192 0.0485,0.338 0.0093,0.079 0.1094,0.578 0.1114,0.61 c 0.0347,0.179 0.0863,0.451 0.1171,0.619 l 0.534,2.603 0.5356,2.705 c 0.0383,0.178 -0.0828,0.426 -0.2653,0.426 l -3.389,0 c -0.184,0 -0.3649,-0.248 -0.3992,-0.426 l -0.5407,-3.507 -0.7957,-3.687 c -0.8418,-3.831 -0.8035,-7.458 3.7508,-7.458 l 7.2871,0 c 0.1856,0 0.366,0 0.4008,0.186 l 1.543,7.186 1.5445,7.319 c 0.0414,0.172 -0.0797,0.387 -0.2668,0.387" /><path
       inkscape:connector-curvature="0"
       id="path32"
       style="fill:#ffffff;fill-opacity:1;fill-rule:nonzero;stroke:none"
       d="m 28.9141,350.734 -1.3387,-5.339 -1.3012,-4.442 c -0.0828,-0.328 -0.5121,-0.298 -0.8203,-0.298 l -6.3144,0 c -4.779,0 -5.9461,3.9 -4.779,10.103 1.1684,6.337 3.5579,10.122 8.2696,10.526 6.4453,0.541 7.8402,-4.686 6.284,-10.55 m 4.1086,-10.311 c 0,0 2.9761,8.104 3.6492,12.794 0.9164,6.264 -1.8727,15.352 -12.6781,15.352 -10.7387,0 -15.40903,-8.676 -17.18911,-18.11 -1.77813,-9.503 0.5539,-17.839 11.23281,-17.773 l 8.432,0.037 7.8805,0.03 c 0.2949,0 0.6078,0.278 0.6848,0.603 l 1.3707,5.867 c 0.0773,0.334 -0.1067,0.603 -0.4098,0.603 l -1.3141,0.013 -1.316,0.007 c -0.2636,0.006 -0.4062,0.186 -0.3793,0.441 l 0.0364,0.136" /><path
       inkscape:connector-curvature="0"
       id="path34"
       style="fill:#992094;fill-opacity:1;fill-rule:nonzero;stroke:none"
       d="m 129.56,331.361 2.449,0.337 -0.541,-2.521 -2.434,-0.336 0.526,2.52 z m -4.084,-13.46 c 1.208,0.908 1.464,1.042 1.627,1.849 l 1.691,7.998 2.451,0.336 -1.851,-8.721 c -0.223,-1.075 -0.564,-1.664 -2.816,-3.093 l -1.102,1.631" /><path
       inkscape:connector-curvature="0"
       id="path36"
       style="fill:#992094;fill-opacity:1;fill-rule:nonzero;stroke:none"
       d="m 131.386,320.119 0.514,1.748 c 0.615,-0.219 1.314,-0.42 2.204,-0.42 0.792,0 0.85,0.235 0.93,0.621 0.08,0.37 -0.147,0.571 -1.055,1.059 -1.683,0.907 -1.73,1.512 -1.468,2.739 0.381,1.765 0.919,2.235 3.188,2.235 0.774,0 1.76,-0.167 2.425,-0.386 l -0.448,-1.781 c -0.6,0.168 -1.488,0.302 -2.059,0.302 -0.706,0 -0.809,-0.084 -0.909,-0.521 -0.081,-0.386 0.001,-0.47 0.776,-0.891 1.848,-1.008 2.121,-1.361 1.841,-2.655 -0.4,-1.848 -0.965,-2.588 -3.42,-2.588 -0.756,0 -1.808,0.219 -2.519,0.538" /><path
       inkscape:connector-curvature="0"
       id="path38"
       style="fill:#992094;fill-opacity:1;fill-rule:nonzero;stroke:none"
       d="m 144.51,322.388 -0.042,-0.252 c -0.006,-0.168 0.075,-0.252 0.31,-0.252 0.438,0 1.531,0.47 2.146,0.773 l 1.068,5.091 2.45,0.336 -1.754,-8.334 -2.017,0 0.009,0.756 c -1.298,-0.605 -2.319,-0.925 -3.261,-0.925 -1.076,0 -1.474,0.639 -1.438,1.664 0.012,0.336 0.055,0.605 0.118,0.941 l 1.169,5.562 2.432,0.336 -1.19,-5.696" /><path
       inkscape:connector-curvature="0"
       id="path40"
       style="fill:#992094;fill-opacity:1;fill-rule:nonzero;stroke:none"
       d="m 156.615,325.312 c 0.021,0.101 0.04,0.185 0.042,0.252 0.006,0.168 -0.075,0.235 -0.31,0.235 -0.438,0 -1.495,-0.437 -2.147,-0.773 l -1.109,-5.276 -2.371,0 1.676,7.982 2.096,0.352 -0.049,-0.907 c 1.3,0.605 2.32,0.924 3.261,0.924 1.094,0 1.476,-0.622 1.44,-1.663 -0.011,-0.286 -0.036,-0.521 -0.118,-0.941 l -1.21,-5.747 -2.371,0 1.17,5.562" /><path
       inkscape:connector-curvature="0"
       id="path42"
       style="fill:#992094;fill-opacity:1;fill-rule:nonzero;stroke:none"
       d="m 162.222,331.361 2.45,0.337 -0.542,-2.521 -2.434,-0.336 0.526,2.52 z m -0.766,-3.613 2.449,0.336 -1.77,-8.334 -2.371,0 1.692,7.998" /><path
       inkscape:connector-curvature="0"
       id="path44"
       style="fill:#992094;fill-opacity:1;fill-rule:nonzero;stroke:none"
       d="m 168.289,326.034 -0.865,-4.083 -0.042,-0.219 c -0.004,-0.118 0.061,-0.168 0.229,-0.168 0.405,0 0.864,0.168 1.29,0.336 l 0.413,-1.647 c -0.685,-0.369 -1.67,-0.672 -2.629,-0.672 -1.194,0 -1.813,0.571 -1.779,1.546 0.004,0.118 0.026,0.236 0.046,0.353 l 0.966,4.554 -1.21,0 0.402,1.9 1.211,0 0.405,1.965 2.45,0.337 -0.485,-2.302 1.952,0 -0.538,-1.9 -1.816,0" /><path
       inkscape:connector-curvature="0"
       id="path46"
       style="fill:#992094;fill-opacity:1;fill-rule:nonzero;stroke:none"
       d="m 177.837,326.034 -0.865,-4.083 -0.042,-0.219 c -0.004,-0.118 0.061,-0.168 0.229,-0.168 0.404,0 0.864,0.168 1.29,0.336 l 0.413,-1.647 c -0.685,-0.369 -1.671,-0.672 -2.63,-0.672 -1.193,0 -1.812,0.571 -1.778,1.546 0.004,0.118 0.025,0.236 0.046,0.353 l 0.966,4.554 -1.21,0 0.402,1.9 1.211,0 0.404,1.965 2.451,0.337 -0.484,-2.302 1.95,0 -0.537,-1.9 -1.816,0" /><path
       inkscape:connector-curvature="0"
       id="path48"
       style="fill:#992094;fill-opacity:1;fill-rule:nonzero;stroke:none"
       d="m 184.974,325.799 c 0.009,0.286 -0.236,0.471 -0.673,0.471 -0.858,0 -1.128,-0.488 -1.269,-1.16 l -0.12,-0.571 c 0.406,0.1 0.592,0.134 1.086,0.285 0.645,0.185 0.958,0.488 0.976,0.975 z m -4.317,-0.79 c 0.403,1.882 1.285,3.092 3.875,3.092 1.547,0 2.7,-0.672 2.653,-2.05 -0.056,-1.596 -0.906,-2.336 -2.945,-2.94 -1.002,-0.303 -1.019,-0.303 -1.732,-0.488 l -0.12,-0.571 c -0.062,-0.303 -0.037,-0.572 0.399,-0.572 0.859,0 2.117,0.42 3.244,0.908 l 0.396,-1.681 c -1.015,-0.622 -2.596,-1.126 -4.042,-1.126 -1.698,0 -2.396,0.74 -2.347,2.134 0.01,0.303 0.057,0.639 0.136,0.992 l 0.483,2.302" /><path
       inkscape:connector-curvature="0"
       id="path50"
       style="fill:#992094;fill-opacity:1;fill-rule:nonzero;stroke:none"
       d="m 187.38,320.119 0.515,1.748 c 0.614,-0.219 1.313,-0.42 2.204,-0.42 0.791,0 0.848,0.235 0.929,0.621 0.081,0.37 -0.147,0.571 -1.055,1.059 -1.683,0.907 -1.73,1.512 -1.468,2.739 0.381,1.765 0.919,2.235 3.188,2.235 0.774,0 1.76,-0.167 2.425,-0.386 l -0.448,-1.781 c -0.6,0.168 -1.487,0.302 -2.059,0.302 -0.706,0 -0.81,-0.084 -0.909,-0.521 -0.081,-0.386 0.001,-0.47 0.777,-0.891 1.847,-1.008 2.121,-1.361 1.84,-2.655 -0.4,-1.848 -0.965,-2.588 -3.42,-2.588 -0.756,0 -1.808,0.219 -2.519,0.538" /><path
       inkscape:connector-curvature="0"
       id="path52"
       style="fill:#992094;fill-opacity:1;fill-rule:nonzero;stroke:none"
       d="m 198.412,326.034 -0.865,-4.083 -0.042,-0.219 c -0.004,-0.118 0.061,-0.168 0.229,-0.168 0.405,0 0.864,0.168 1.29,0.336 l 0.414,-1.647 c -0.686,-0.369 -1.671,-0.672 -2.63,-0.672 -1.194,0 -1.813,0.571 -1.779,1.546 0.004,0.118 0.026,0.236 0.046,0.353 l 0.966,4.554 -1.21,0 0.402,1.9 1.211,0 0.405,1.965 2.45,0.337 -0.485,-2.302 1.952,0 -0.537,-1.9 -1.817,0" /><path
       inkscape:connector-curvature="0"
       id="path54"
       style="fill:#992094;fill-opacity:1;fill-rule:nonzero;stroke:none"
       d="m 202.919,331.361 2.45,0.337 -0.542,-2.521 -2.433,-0.336 0.525,2.52 z m -0.766,-3.613 2.45,0.336 -1.771,-8.334 -2.371,0 1.692,7.998" /><path
       inkscape:connector-curvature="0"
       id="path56"
       style="fill:#992094;fill-opacity:1;fill-rule:nonzero;stroke:none"
       d="m 210.76,325.312 c 0.02,0.101 0.04,0.185 0.042,0.252 0.006,0.168 -0.075,0.235 -0.311,0.235 -0.437,0 -1.495,-0.437 -2.146,-0.773 l -1.11,-5.276 -2.371,0 1.676,7.982 2.097,0.352 -0.049,-0.907 c 1.3,0.605 2.319,0.924 3.261,0.924 1.093,0 1.475,-0.622 1.439,-1.663 -0.011,-0.286 -0.035,-0.521 -0.117,-0.941 l -1.21,-5.747 -2.371,0 1.17,5.562" /><path
       inkscape:connector-curvature="0"
       id="path58"
       style="fill:#992094;fill-opacity:1;fill-rule:nonzero;stroke:none"
       d="m 216.612,322.539 c -0.099,-0.437 0.012,-0.639 0.432,-0.639 0.521,0 1.374,0.337 1.872,0.639 l 0.745,3.529 c -0.283,0.034 -0.586,0.05 -0.923,0.05 -1.227,0 -1.483,-0.604 -1.663,-1.394 l -0.463,-2.185 z m 1.902,-1.916 c -0.704,-0.403 -1.523,-0.705 -2.413,-0.705 -1.783,0 -2.182,1.092 -1.798,2.923 l 0.401,1.866 c 0.442,2.067 1.01,3.394 4.508,3.394 0.857,0 2.13,-0.15 3.161,-0.487 l -1.932,-9.075 c -0.382,-1.831 -1.189,-2.269 -3.375,-2.269 -0.975,0 -2.628,0.303 -3.626,0.639 l 0.478,1.664 c 1.251,-0.302 2.27,-0.471 3.245,-0.471 0.707,0 0.885,0.269 1.005,0.824 l 0.346,1.697" /></g></svg>